<svg width="208" height="208" viewBox="0 0 208 208" fill="none" xmlns="http://www.w3.org/2000/svg">
<rect x="1.31199" y="62.4397" width="155.919" height="155.919" rx="77.9593" transform="rotate(-23.082 1.31199 62.4397)" stroke="black" stroke-width="2"/>
<path d="M98.0296 172.313L97.6987 166.29L95.2788 173.306C95.0722 173.918 94.7193 174.19 94.22 174.121C93.6929 174.049 93.4167 173.728 93.3912 173.159L93.0241 165.548L91.0541 171.142C90.9149 171.538 90.8308 171.842 90.8015 172.054C90.7494 172.433 90.9175 172.65 91.3059 172.703C91.3891 172.714 91.51 172.726 91.6684 172.739C91.8269 172.751 91.9477 172.763 92.0309 172.774C92.4285 172.829 92.6057 173.014 92.5625 173.328C92.5206 173.633 92.3054 173.759 91.9171 173.706C91.7691 173.685 91.6178 173.655 91.4632 173.615C90.7177 173.418 90.2247 173.303 89.9843 173.27C89.7994 173.245 89.5228 173.235 89.1546 173.241C88.7771 173.246 88.4959 173.235 88.311 173.21C87.9689 173.163 87.82 172.978 87.8645 172.654C87.9052 172.358 88.092 172.233 88.4248 172.279C88.4803 172.286 88.5629 172.302 88.6726 172.327C88.781 172.361 88.8629 172.381 88.9184 172.389C89.1126 172.416 89.2661 172.361 89.3789 172.226C89.4824 172.09 89.6299 171.771 89.8213 171.27L92.284 164.867C92.4741 164.375 92.7957 164.16 93.2487 164.223C93.7296 164.289 93.9869 164.644 94.0206 165.29L94.413 172.819L96.9877 165.5C97.158 165.014 97.4559 164.801 97.8812 164.859C98.3158 164.919 98.5582 165.211 98.6085 165.736L99.3096 172.87C99.3446 173.233 99.4185 173.484 99.5314 173.622C99.6338 173.768 99.8191 173.859 100.087 173.896L100.184 173.909L100.493 173.923C100.789 173.964 100.916 174.137 100.874 174.442C100.83 174.766 100.646 174.905 100.322 174.861C100.193 174.843 100.047 174.809 99.8839 174.758C99.3961 174.606 98.9164 174.498 98.4448 174.433C98.2229 174.403 97.708 174.379 96.9001 174.362C96.7588 174.362 96.6235 174.352 96.494 174.335C96.1612 174.289 96.0157 174.113 96.0576 173.808C96.1034 173.475 96.3297 173.337 96.7365 173.393C96.8198 173.404 96.9479 173.431 97.1211 173.474C97.285 173.515 97.4085 173.542 97.4917 173.553C97.8154 173.598 97.9981 173.467 98.0401 173.162C98.0553 173.051 98.0593 172.92 98.0519 172.768L98.0296 172.313Z" fill="black"/>
<path d="M76.9044 167.21C76.6292 167.844 76.7099 168.255 77.1465 168.445C77.2664 168.497 77.36 168.528 77.4274 168.536C77.5755 168.57 77.6966 168.608 77.7908 168.649C77.9021 168.697 77.9795 168.776 78.0231 168.887C78.063 169.006 78.0569 169.125 78.0048 169.245C77.8747 169.545 77.6212 169.613 77.2446 169.449C77.1932 169.427 77.1352 169.397 77.0704 169.358L76.4289 168.973C76.1869 168.827 75.929 168.695 75.655 168.576C75.3896 168.46 75.0893 168.355 74.754 168.261L74.1426 168.087C74.0704 168.065 74.0087 168.044 73.9573 168.021C73.5806 167.858 73.4574 167.626 73.5875 167.326C73.6396 167.207 73.7227 167.121 73.8369 167.069C73.9475 167.025 74.0584 167.027 74.1696 167.076C74.2552 167.113 74.3652 167.176 74.4996 167.265C74.5521 167.308 74.6383 167.356 74.7581 167.408C75.1947 167.597 75.5506 167.375 75.8258 166.742L78.0624 161.593C78.3413 160.951 78.2624 160.535 77.8258 160.345C77.7573 160.315 77.6637 160.285 77.545 160.254C77.3712 160.209 77.25 160.171 77.1816 160.142C76.9162 160.026 76.843 159.832 76.962 159.558C77.0958 159.25 77.3511 159.177 77.7278 159.341C77.7449 159.348 77.7748 159.361 77.8177 159.38C77.8482 159.403 77.8763 159.421 77.902 159.432L78.5251 159.825C78.7328 159.955 78.9608 160.075 79.209 160.183C79.5686 160.339 79.8989 160.457 80.2 160.537L80.8297 160.703C80.8468 160.711 80.8786 160.72 80.9252 160.73C80.968 160.748 81.0022 160.763 81.0279 160.774C81.396 160.934 81.5131 161.168 81.3793 161.476C81.2603 161.75 81.0681 161.83 80.8027 161.714C80.7599 161.696 80.6481 161.637 80.4672 161.538C80.3841 161.472 80.2998 161.42 80.2142 161.382C79.7776 161.193 79.4199 161.419 79.141 162.061L76.9044 167.21Z" fill="black"/>
<path d="M58.9937 158.811C58.2842 158.234 57.8905 157.535 57.8128 156.714L57.6891 156.866C57.4593 157.148 57.2323 157.198 57.0078 157.015C56.7617 156.815 56.7652 156.559 57.0185 156.248L57.0715 156.183C57.0833 156.168 57.1825 156.069 57.3691 155.883C57.5558 155.698 57.764 155.465 57.9937 155.182C58.0231 155.146 58.1101 155.024 58.2547 154.817L58.5755 154.356C58.5977 154.314 58.6353 154.261 58.6884 154.195C58.9711 153.848 59.2464 153.783 59.5143 154.001C59.7966 154.231 59.82 154.49 59.5844 154.78C59.5549 154.816 59.5402 154.834 59.5402 154.834L59.28 155.11C59.1902 155.205 59.1218 155.282 59.0747 155.34C58.7213 155.774 58.5929 156.235 58.6895 156.723C58.7788 157.205 59.0805 157.655 59.5945 158.073C60.0651 158.456 60.5358 158.646 61.0067 158.644C61.4703 158.636 61.8611 158.437 62.1792 158.046C62.5503 157.59 62.6178 157.085 62.3819 156.532C62.2444 156.228 61.9244 155.793 61.4218 155.228C60.6721 154.39 60.2352 153.721 60.111 153.223C59.9218 152.48 60.0922 151.782 60.6224 151.13C61.176 150.45 61.8728 150.096 62.7126 150.07C63.5452 150.037 64.3489 150.336 65.1235 150.966C65.9489 151.638 66.421 152.455 66.5399 153.418C66.5635 153.389 66.5864 153.354 66.6086 153.312C66.638 153.275 66.6557 153.254 66.6616 153.246C66.7414 153.119 66.796 153.037 66.8254 153.001C67.0434 152.733 67.279 152.702 67.5324 152.908C67.8075 153.132 67.8214 153.396 67.574 153.7C67.5446 153.736 67.5174 153.762 67.4925 153.778L66.9896 154.307C66.7382 154.572 66.5801 154.744 66.5153 154.824C66.3975 154.969 66.2389 155.201 66.0395 155.52C65.84 155.839 65.6814 156.071 65.5636 156.215C65.2986 156.541 65.0285 156.592 64.7534 156.368C64.471 156.139 64.4624 155.861 64.7274 155.535L64.8865 155.34C64.9408 155.288 65.0122 155.207 65.1005 155.099C65.5423 154.556 65.719 153.983 65.6306 153.382C65.5423 152.781 65.2013 152.239 64.6076 151.756C64.0574 151.308 63.5133 151.082 62.9755 151.078C62.4376 151.073 61.9861 151.295 61.6209 151.744C61.0614 152.432 61.1541 153.205 61.8992 154.064L62.4299 154.677C62.9569 155.286 63.3317 155.801 63.5542 156.223C63.7536 156.614 63.8296 157.031 63.7822 157.473C63.7217 157.917 63.5413 158.324 63.2409 158.693C62.7226 159.33 62.0697 159.66 61.2824 159.681C60.4951 159.702 59.7322 159.412 58.9937 158.811Z" fill="black"/>
<path d="M47.1265 144.826L51.3483 137.236L46.739 140.49C46.1442 140.91 45.819 141.145 45.7634 141.196C45.4153 141.544 45.3516 141.875 45.5723 142.188C45.6154 142.249 45.6914 142.332 45.8004 142.438C45.9018 142.549 45.974 142.635 46.017 142.696C46.087 142.795 46.1146 142.907 46.0998 143.032C46.072 143.154 46.0085 143.251 45.9094 143.321C45.6349 143.514 45.3765 143.44 45.1343 143.096C45.0859 143.028 45.0547 142.976 45.0408 142.94L44.7461 142.377C44.6152 142.126 44.4797 141.902 44.3398 141.704C44.1998 141.506 43.9913 141.259 43.7141 140.963C43.6181 140.859 43.5048 140.739 43.3743 140.603C43.3635 140.588 43.3409 140.564 43.3063 140.531C43.2848 140.501 43.266 140.474 43.2498 140.451C43.0184 140.123 43.0361 139.865 43.303 139.677C43.5622 139.494 43.7995 139.555 44.0148 139.86C44.0525 139.913 44.0783 139.958 44.0922 139.994L44.1729 140.108C44.3344 140.337 44.4889 140.45 44.6365 140.449C44.784 140.448 45.0309 140.336 45.3772 140.115L46.0453 139.677L47.2281 138.877L50.2819 136.721C50.808 136.35 51.2209 136.15 51.5205 136.121C51.8148 136.085 52.0642 136.211 52.2687 136.501C52.5324 136.875 52.4889 137.38 52.1382 138.016L48.0199 145.412L53.3384 141.658C53.9103 141.254 54.059 140.858 53.7845 140.469C53.7414 140.408 53.6692 140.322 53.5678 140.211C53.4589 140.105 53.3828 140.022 53.3398 139.961C53.1675 139.717 53.2072 139.506 53.4589 139.328C53.7257 139.14 53.9803 139.217 54.2225 139.56C54.2332 139.576 54.2494 139.598 54.2709 139.629C54.2902 139.672 54.3052 139.702 54.316 139.717L54.5784 140.234C54.7233 140.521 54.8764 140.778 55.0379 141.007C55.1778 141.205 55.3772 141.447 55.636 141.733L56.1002 142.245C56.111 142.26 56.1337 142.284 56.1682 142.317C56.1951 142.355 56.2166 142.385 56.2328 142.408C56.4642 142.736 56.4465 142.994 56.1796 143.183C55.9433 143.349 55.739 143.311 55.5667 143.067C55.5398 143.029 55.4748 142.92 55.3716 142.742C55.3353 142.642 55.2902 142.554 55.2364 142.478C54.9619 142.089 54.5387 142.096 53.9668 142.5L53.1662 143.065L52.1516 143.764L51.168 144.458L49.3689 145.745C48.797 146.149 48.651 146.549 48.9309 146.946C48.9686 146.999 49.03 147.07 49.1153 147.158C49.2404 147.287 49.3272 147.386 49.3756 147.454C49.5479 147.698 49.5082 147.909 49.2565 148.087C48.9897 148.275 48.7405 148.205 48.5091 147.877C48.4768 147.832 48.4375 147.768 48.3913 147.686C48.1603 147.278 47.9722 146.971 47.8268 146.765C47.7461 146.651 47.6136 146.487 47.4292 146.275C47.2449 146.062 47.1123 145.899 47.0316 145.784C46.8648 145.548 46.8345 145.335 46.9408 145.146L47.1265 144.826Z" fill="black"/>
<path d="M40.2124 128.735L41.066 128.461L42.1533 128.134L44.1848 127.412C44.8004 127.193 45.2255 126.968 45.4601 126.736C45.6915 126.495 45.8191 126.158 45.843 125.723C45.8675 125.318 45.8141 124.931 45.6828 124.562C45.5109 124.078 45.2717 123.698 44.9651 123.42C44.6585 123.143 44.3342 123.011 43.992 123.023C43.6379 123.03 43.2174 123.115 42.7306 123.279L39.3309 124.457C38.6626 124.695 38.2875 124.838 38.2058 124.887C37.7855 125.125 37.6409 125.429 37.7722 125.798C37.794 125.86 37.8341 125.945 37.8923 126.053C37.9781 126.211 38.0335 126.325 38.0585 126.395C38.0991 126.509 38.0911 126.626 38.0344 126.745C37.9746 126.856 37.8875 126.931 37.7732 126.972C37.4566 127.084 37.2295 126.947 37.092 126.56C37.0701 126.499 37.0526 126.436 37.0395 126.371L36.8685 125.555C36.8261 125.352 36.7611 125.128 36.6736 124.881C36.5892 124.644 36.5057 124.451 36.4231 124.302L36.1291 123.767C36.0465 123.619 35.9958 123.518 35.977 123.465C35.8458 123.096 35.9296 122.858 36.2287 122.751C36.5277 122.645 36.7412 122.772 36.8694 123.133L36.921 123.278C36.9215 123.308 36.9328 123.353 36.9547 123.415C37.0484 123.678 37.2382 123.794 37.5239 123.762C37.8096 123.73 38.4977 123.52 39.5882 123.132L41.8967 122.312C42.4684 122.109 42.888 121.979 43.1555 121.924C43.6202 121.838 44.0559 121.852 44.4626 121.965C45.4152 122.22 46.115 122.977 46.562 124.235C47.1121 125.782 46.9612 126.96 46.1092 127.768C45.8514 128.018 45.3971 128.259 44.7463 128.49C44.4297 128.603 43.9589 128.755 43.3339 128.948C42.7002 129.143 42.225 129.297 41.9084 129.41L41.2092 129.658C40.5672 129.887 40.2082 130.019 40.1322 130.056C39.6704 130.289 39.4895 130.547 39.5895 130.828C39.5957 130.846 39.6067 130.877 39.6223 130.921C39.6467 130.962 39.6696 130.998 39.6909 131.03C39.7034 131.065 39.7237 131.122 39.7518 131.202C39.8831 131.571 39.7992 131.809 39.5002 131.915C39.2012 132.021 38.9923 131.907 38.8736 131.573C38.8235 131.432 38.7836 131.278 38.7537 131.111C38.6709 130.655 38.5639 130.242 38.4326 129.873C38.2982 129.494 38.1039 129.073 37.8498 128.609C37.7947 128.509 37.7452 128.398 37.7015 128.275C37.5733 127.915 37.6588 127.681 37.9578 127.575C38.2568 127.469 38.461 127.569 38.5704 127.877C38.5954 127.948 38.6241 128.056 38.6565 128.203C38.6801 128.353 38.7045 128.463 38.7295 128.534C38.8295 128.815 39.0462 128.951 39.3796 128.942C39.5271 128.939 39.8047 128.87 40.2124 128.735Z" fill="black"/>
<path d="M36.4084 93.5468L42.4401 93.6277L35.6057 90.7347C35.009 90.4867 34.7619 90.116 34.8645 89.6226C34.9727 89.1017 35.3114 88.848 35.8806 88.8614L43.4988 89.0146L38.0524 86.6674C37.6674 86.5016 37.3698 86.3968 37.1597 86.3532C36.785 86.2753 36.5578 86.4283 36.478 86.8121C36.461 86.8943 36.4408 87.0141 36.4177 87.1713C36.3946 87.3286 36.3744 87.4483 36.3573 87.5306C36.2757 87.9235 36.0795 88.0877 35.7688 88.0231C35.4673 87.9605 35.3564 87.7372 35.4361 87.3534C35.4665 87.2072 35.507 87.0583 35.5575 86.9068C35.8046 86.1764 35.9529 85.6925 36.0022 85.4549C36.0402 85.2721 36.0688 84.9969 36.088 84.6291C36.1092 84.2522 36.1387 83.9723 36.1767 83.7896C36.247 83.4514 36.442 83.3156 36.7618 83.3821C37.0543 83.4428 37.1663 83.6377 37.0979 83.9667C37.0865 84.0215 37.0649 84.1028 37.0329 84.2106C36.9919 84.3164 36.9657 84.3968 36.9543 84.4516C36.9144 84.6435 36.9581 84.8003 37.0853 84.9221C37.2144 85.0347 37.5225 85.2036 38.0095 85.4287L44.2288 88.3226C44.7067 88.5459 44.8992 88.8814 44.8061 89.3291C44.7074 89.8043 44.335 90.0367 43.6889 90.0264L36.1501 89.904L43.2769 92.9722C43.7495 93.1753 43.9421 93.487 43.8548 93.9073C43.7655 94.3368 43.4573 94.5587 42.93 94.5731L35.7648 94.7858C35.4005 94.7958 35.1456 94.8525 35.0003 94.9558C34.8476 95.048 34.7438 95.2266 34.6887 95.4916L34.6688 95.5875L34.6335 95.8948C34.5728 96.1872 34.3916 96.3021 34.0901 96.2394C33.7702 96.173 33.6435 95.9798 33.71 95.66C33.7366 95.532 33.7807 95.3887 33.8423 95.2299C34.027 94.7535 34.1679 94.2823 34.2647 93.8163C34.3103 93.597 34.369 93.0849 34.441 92.28C34.4512 92.1391 34.4696 92.0047 34.4961 91.8768C34.5645 91.5478 34.7495 91.4147 35.051 91.4773C35.38 91.5457 35.5027 91.7809 35.4192 92.183C35.4021 92.2652 35.3663 92.3913 35.312 92.5611C35.2595 92.7218 35.2248 92.8432 35.2077 92.9255C35.1412 93.2453 35.2588 93.4366 35.5603 93.4992C35.67 93.522 35.8007 93.5349 35.9527 93.5379L36.4084 93.5468Z" fill="black"/>
<path d="M42.9397 72.8187C42.3265 72.501 41.9103 72.5534 41.6914 72.976C41.6312 73.0921 41.5944 73.1834 41.581 73.25C41.5371 73.3954 41.4916 73.5138 41.4443 73.6049C41.3885 73.7126 41.304 73.7845 41.1908 73.8204C41.0693 73.8521 40.9505 73.8378 40.8345 73.7777C40.5444 73.6274 40.4939 73.37 40.6828 73.0053C40.7086 72.9556 40.7428 72.8997 40.7854 72.8377L41.2138 72.224C41.3758 71.9926 41.5254 71.7443 41.6628 71.4791C41.796 71.2222 41.9212 70.9297 42.0387 70.6016L42.2539 70.0036C42.28 69.933 42.3059 69.8729 42.3317 69.8232C42.5206 69.4585 42.7601 69.3514 43.0501 69.5016C43.1662 69.5618 43.2463 69.6506 43.2905 69.7681C43.3264 69.8813 43.3165 69.9918 43.2607 70.0995C43.2177 70.1824 43.1473 70.2878 43.0495 70.4158C43.0028 70.4653 42.9495 70.548 42.8894 70.664C42.6704 71.0866 42.8675 71.4568 43.4807 71.7746L48.4653 74.3574C49.0868 74.6794 49.5071 74.6291 49.7261 74.2065C49.7604 74.1402 49.7972 74.0489 49.8365 73.9326C49.8932 73.7622 49.9387 73.6439 49.9731 73.5776C50.1062 73.3207 50.3053 73.261 50.5705 73.3984C50.8689 73.553 50.9236 73.8126 50.7346 74.1772C50.726 74.1938 50.711 74.2228 50.6895 74.2642C50.6641 74.2931 50.6449 74.3199 50.632 74.3448L50.1977 74.9396C50.0529 75.1379 49.9182 75.3572 49.7937 75.5976C49.6133 75.9456 49.473 76.2671 49.3728 76.562L49.1635 77.1789C49.1549 77.1955 49.144 77.2266 49.1308 77.2724C49.1094 77.3138 49.0922 77.347 49.0793 77.3718C48.8947 77.7282 48.6532 77.829 48.3549 77.6745C48.0897 77.537 48.0236 77.3399 48.1568 77.083C48.1782 77.0416 48.2445 76.934 48.3555 76.7603C48.4276 76.682 48.4851 76.6014 48.5281 76.5185C48.7471 76.0959 48.5458 75.7236 47.9243 75.4015L42.9397 72.8187Z" fill="black"/>
<path d="M52.5421 55.5239C53.1664 54.8554 53.8909 54.5104 54.7156 54.4889L54.5724 54.3551C54.3063 54.1066 54.2721 53.8767 54.4696 53.6652C54.6862 53.4333 54.9411 53.4543 55.2344 53.7282L55.2958 53.7856C55.3095 53.7983 55.4022 53.9041 55.5741 54.1029C55.746 54.3018 55.9649 54.5254 56.231 54.7739C56.2651 54.8057 56.3806 54.9008 56.5775 55.0592L57.0154 55.4107C57.0559 55.4358 57.1068 55.4769 57.1682 55.5343C57.4956 55.8401 57.5415 56.1191 57.3058 56.3715C57.0573 56.6376 56.7967 56.6432 56.5238 56.3883C56.4897 56.3565 56.4727 56.3406 56.4727 56.3406L56.2155 56.0621C56.1264 55.9661 56.0546 55.8926 56 55.8416C55.5907 55.4594 55.1395 55.2998 54.6464 55.3629C54.1597 55.4191 53.6902 55.6894 53.2379 56.1737C52.8238 56.6171 52.6016 57.0737 52.5715 57.5436C52.5477 58.0067 52.7199 58.4102 53.0883 58.7542C53.518 59.1555 54.0168 59.2574 54.5845 59.0597C54.8975 58.9433 55.3532 58.6537 55.9515 58.1908C56.8392 57.5002 57.5357 57.1099 58.0411 57.02C58.7958 56.8819 59.4801 57.0996 60.094 57.6729C60.7352 58.2717 61.0404 58.991 61.0096 59.8307C60.9853 60.6636 60.6323 61.4449 59.9506 62.1748C59.2244 62.9524 58.3768 63.3677 57.4079 63.4206C57.4352 63.4461 57.4691 63.4713 57.5095 63.4964C57.5436 63.5282 57.5641 63.5473 57.5709 63.5537C57.6928 63.642 57.7708 63.702 57.8049 63.7339C58.0573 63.9696 58.072 64.2068 57.849 64.4456C57.607 64.7048 57.3427 64.7006 57.0562 64.433C57.0221 64.4012 56.998 64.3723 56.9839 64.3464L56.4901 63.8085C56.2431 63.5396 56.0822 63.3701 56.0071 63.3001C55.8707 63.1726 55.6502 62.9986 55.3455 62.7779C55.0408 62.5572 54.8202 62.3831 54.6838 62.2557C54.3768 61.969 54.3444 61.6961 54.5865 61.4369C54.8349 61.1708 55.1126 61.1812 55.4196 61.4678L55.6037 61.6398C55.6519 61.6976 55.7272 61.7743 55.8295 61.8699C56.3411 62.3476 56.8998 62.563 57.5058 62.5159C58.1117 62.4688 58.6758 62.1655 59.1982 61.6062C59.6824 61.0878 59.945 60.5604 59.9861 60.0242C60.0272 59.4879 59.8363 59.0222 59.4134 58.6273C58.7654 58.0221 57.9875 58.0618 57.0798 58.7466L56.4328 59.2343C55.789 59.7185 55.2492 60.0572 54.8134 60.2504C54.4098 60.4227 53.9888 60.4701 53.5504 60.3926C53.1114 60.3019 52.718 60.0941 52.3702 59.7692C51.7699 59.2086 51.486 58.5349 51.5186 57.7479C51.5511 56.961 51.8923 56.2197 52.5421 55.5239Z" fill="black"/>
<path d="M67.3042 44.6381L74.5882 49.368L71.6567 44.5474C71.2784 43.9254 71.0659 43.5849 71.0191 43.5259C70.6952 43.1549 70.3698 43.0688 70.0428 43.2676C69.979 43.3064 69.8906 43.3766 69.7775 43.4781C69.6596 43.5716 69.5688 43.6378 69.505 43.6766C69.4013 43.7396 69.2878 43.7595 69.1644 43.7362C69.0441 43.7001 68.9525 43.6302 68.8894 43.5266C68.7149 43.2395 68.807 42.9868 69.1659 42.7686C69.2376 42.725 69.2919 42.6974 69.3286 42.686L69.9106 42.4304C70.1692 42.3169 70.4022 42.197 70.6095 42.0709C70.8169 41.9448 71.0774 41.7536 71.3912 41.4972C71.5012 41.4086 71.6286 41.3038 71.7735 41.1828C71.7895 41.1731 71.815 41.1522 71.85 41.12C71.8819 41.1006 71.9098 41.0836 71.9337 41.069C72.2766 40.8605 72.533 40.8958 72.7027 41.1749C72.8676 41.4461 72.7905 41.6786 72.4715 41.8726C72.4157 41.9065 72.3694 41.9292 72.3327 41.9406L72.2131 42.0134C71.9738 42.1589 71.8498 42.3053 71.8411 42.4526C71.8324 42.5999 71.9267 42.8538 72.1242 43.2144L72.5149 43.9108L73.2329 45.1455L75.1751 48.3393C75.5097 48.8895 75.6811 49.3151 75.6893 49.616C75.7055 49.912 75.5621 50.1521 75.259 50.3364C74.8683 50.5741 74.3676 50.4962 73.757 50.1029L66.6586 45.4895L70.041 51.0517C70.4048 51.6498 70.79 51.8252 71.1967 51.5779C71.2605 51.5391 71.3513 51.4729 71.4692 51.3794C71.5822 51.2779 71.6707 51.2077 71.7345 51.1689C71.9896 51.0137 72.1973 51.0677 72.3573 51.3309C72.527 51.61 72.4325 51.8587 72.0736 52.0769C72.0577 52.0866 72.0337 52.1011 72.0018 52.1205C71.9571 52.1368 71.9268 52.1498 71.9108 52.1595L71.3767 52.386C71.0814 52.511 70.814 52.6462 70.5748 52.7917C70.3675 52.9178 70.1124 53.1002 69.8097 53.3389L69.2673 53.7671C69.2513 53.7768 69.2258 53.7978 69.1908 53.83C69.1509 53.8542 69.119 53.8736 69.0951 53.8882C68.7522 54.0967 68.4959 54.0614 68.3261 53.7823C68.1758 53.5351 68.2282 53.3339 68.4834 53.1787C68.5233 53.1545 68.6358 53.097 68.8209 53.0062C68.9232 52.9768 69.0142 52.9378 69.094 52.8893C69.5007 52.642 69.5222 52.2193 69.1585 51.6212L68.6493 50.7839L68.0211 49.724L67.3955 48.6953L66.2342 46.8126C65.8705 46.2145 65.4813 46.0415 65.0667 46.2937C65.0108 46.3276 64.9359 46.3841 64.842 46.4631C64.705 46.5791 64.6006 46.659 64.5289 46.7026C64.2737 46.8578 64.0661 46.8038 63.906 46.5407C63.7363 46.2616 63.8229 46.0177 64.1658 45.8092C64.2136 45.7801 64.2799 45.7453 64.3645 45.7048C64.7874 45.5022 65.1066 45.3354 65.3219 45.2045C65.4415 45.1317 65.6137 45.0107 65.8384 44.8413C66.063 44.6719 66.2352 44.5508 66.3548 44.478C66.602 44.3277 66.8164 44.312 66.998 44.431L67.3042 44.6381Z" fill="black"/>
<path d="M83.8298 38.8377L84.0446 39.708L84.2966 40.8151L84.8783 42.8911C85.0545 43.5202 85.2504 43.9597 85.4658 44.2095C85.6901 44.4568 86.0182 44.6072 86.45 44.6607C86.8523 44.7127 87.2422 44.6859 87.6196 44.5801C88.1139 44.4416 88.5099 44.2289 88.8075 43.942C89.1051 43.655 89.2593 43.3404 89.27 42.9982C89.2872 42.6444 89.2311 42.2191 89.1016 41.7223L88.1578 38.2502C87.9664 37.5672 87.8491 37.1832 87.806 37.0984C87.5967 36.6627 87.3033 36.4978 86.9258 36.6035C86.8629 36.6211 86.7756 36.6553 86.6638 36.706C86.5006 36.7808 86.383 36.8283 86.3111 36.8484C86.1943 36.8812 86.0783 36.8652 85.9633 36.8005C85.8572 36.7333 85.7878 36.6413 85.7551 36.5244C85.6644 36.2009 85.8168 35.9837 86.2123 35.8729C86.2752 35.8553 86.3393 35.8422 86.4048 35.8335L87.2304 35.7185C87.4356 35.6901 87.6641 35.6406 87.9157 35.5701C88.1584 35.5021 88.3568 35.432 88.511 35.3597L89.0643 35.1029C89.2185 35.0306 89.3226 34.9869 89.3765 34.9718C89.754 34.8661 89.9855 34.966 90.0711 35.2715C90.1567 35.5771 90.0153 35.7815 89.6468 35.8847L89.4985 35.9263C89.469 35.9249 89.4229 35.933 89.3599 35.9506C89.0903 36.0261 88.9618 36.2075 88.9745 36.4948C88.9871 36.782 89.1495 37.4828 89.4618 38.5973L90.1228 40.9564C90.2865 41.5406 90.3868 41.968 90.4239 42.2387C90.4779 42.7082 90.4347 43.142 90.2942 43.54C89.974 44.4729 89.1714 45.1195 87.8862 45.4796C86.3044 45.9228 85.1396 45.6918 84.3917 44.7867C84.1597 44.5124 83.9506 44.0428 83.7643 43.3777C83.6736 43.0542 83.5536 42.5741 83.4043 41.9374C83.2525 41.2918 83.1313 40.8072 83.0406 40.4836L82.8404 39.7691C82.6566 39.1131 82.5489 38.7459 82.5172 38.6675C82.3158 38.1908 82.0713 37.9928 81.7837 38.0733C81.7657 38.0784 81.7343 38.0872 81.6893 38.0998C81.6469 38.1214 81.609 38.1417 81.5756 38.1607C81.5396 38.1708 81.4812 38.1872 81.4003 38.2098C81.0229 38.3156 80.7913 38.2157 80.7057 37.9101C80.6201 37.6046 80.748 37.4039 81.0895 37.3083C81.2333 37.268 81.3899 37.2386 81.5592 37.2203C82.0197 37.1688 82.4387 37.0902 82.8162 36.9844C83.2027 36.8761 83.6362 36.711 84.1168 36.4891C84.2196 36.4409 84.3339 36.3992 84.4598 36.364C84.8282 36.2607 85.0553 36.3619 85.1409 36.6675C85.2265 36.973 85.112 37.1699 84.7975 37.258C84.7256 37.2782 84.6152 37.2994 84.4664 37.3217C84.315 37.335 84.2034 37.3518 84.1315 37.3719C83.8439 37.4525 83.6935 37.6594 83.6803 37.9927C83.6731 38.1401 83.7229 38.4217 83.8298 38.8377Z" fill="black"/>
<path d="M119.195 37.4439L118.703 43.456L122.056 36.835C122.344 36.2566 122.73 36.0354 123.216 36.1714C123.728 36.3149 123.958 36.6702 123.906 37.2371L123.233 44.8271L125.946 39.5536C126.138 39.1808 126.263 38.8911 126.321 38.6843C126.424 38.3159 126.287 38.0788 125.91 37.973C125.829 37.9503 125.711 37.9221 125.555 37.8883C125.4 37.8544 125.282 37.8262 125.201 37.8035C124.815 37.6953 124.664 37.4883 124.75 37.1828C124.833 36.8862 125.063 36.7908 125.441 36.8965C125.584 36.9368 125.73 36.9874 125.878 37.0482C126.59 37.3445 127.062 37.5254 127.296 37.5909C127.476 37.6413 127.748 37.6886 128.114 37.7329C128.489 37.7797 128.766 37.8282 128.946 37.8786C129.278 37.9718 129.4 38.1756 129.312 38.4902C129.232 38.7778 129.03 38.8763 128.706 38.7856C128.652 38.7705 128.572 38.7433 128.467 38.7041C128.364 38.6559 128.286 38.6243 128.232 38.6092C128.043 38.5563 127.884 38.5892 127.754 38.7078C127.632 38.8289 127.443 39.1248 127.185 39.5953L123.874 45.6026C123.618 46.0642 123.27 46.2333 122.83 46.1099C122.363 45.9789 122.156 45.5915 122.211 44.9477L122.847 37.4348L119.3 44.3357C119.065 44.7933 118.741 44.9642 118.327 44.8483C117.905 44.73 117.705 44.4073 117.726 43.8802L118.003 36.7173C118.018 36.3531 117.979 36.095 117.886 35.9429C117.804 35.7843 117.633 35.6686 117.372 35.5955L117.278 35.5691L116.974 35.513C116.686 35.4324 116.584 35.2438 116.667 34.9472C116.755 34.6327 116.957 34.5195 117.271 34.6076C117.397 34.6428 117.537 34.6966 117.691 34.7689C118.154 34.9858 118.614 35.1584 119.073 35.2868C119.288 35.3473 119.795 35.4408 120.593 35.5675C120.733 35.5873 120.866 35.6148 120.992 35.6501C121.315 35.7407 121.436 35.9344 121.353 36.2309C121.262 36.5545 121.019 36.6608 120.623 36.55C120.543 36.5274 120.419 36.4831 120.253 36.4173C120.097 36.354 119.978 36.311 119.897 36.2884C119.583 36.2002 119.384 36.3045 119.301 36.601C119.27 36.7089 119.249 36.8385 119.235 36.9898L119.195 37.4439Z" fill="black"/>
<path d="M139.429 45.3756C139.788 44.7855 139.764 44.3668 139.357 44.1194C139.246 44.0515 139.157 44.0086 139.091 43.9906C138.949 43.9369 138.834 43.8834 138.747 43.8301C138.643 43.767 138.577 43.6778 138.549 43.5624C138.526 43.439 138.548 43.3215 138.616 43.2098C138.786 42.9307 139.046 42.8979 139.397 43.1112C139.445 43.1403 139.498 43.1783 139.557 43.225L140.14 43.6943C140.36 43.8717 140.597 44.038 140.853 44.1931C141.1 44.3435 141.383 44.4884 141.702 44.628L142.284 44.8835C142.353 44.9144 142.411 44.9443 142.459 44.9734C142.81 45.1868 142.901 45.433 142.731 45.7122C142.663 45.8238 142.569 45.8977 142.449 45.9338C142.333 45.9619 142.224 45.9444 142.12 45.8814C142.04 45.8329 141.94 45.7555 141.819 45.6491C141.773 45.5992 141.694 45.5403 141.582 45.4724C141.175 45.2251 140.793 45.3965 140.434 45.9866L137.517 50.7833C137.153 51.3814 137.175 51.8041 137.581 52.0515C137.645 52.0903 137.734 52.1332 137.847 52.1803C138.013 52.2485 138.128 52.302 138.192 52.3408C138.439 52.4911 138.485 52.6939 138.33 52.9491C138.155 53.2362 137.893 53.273 137.542 53.0597C137.526 53.05 137.498 53.033 137.458 53.0087C137.431 52.9814 137.405 52.9604 137.382 52.9459L136.818 52.4719C136.63 52.3139 136.42 52.1646 136.189 52.024C135.854 51.8203 135.543 51.6584 135.255 51.5382L134.654 51.2873C134.638 51.2776 134.608 51.2647 134.563 51.2484C134.523 51.2241 134.491 51.2047 134.468 51.1902C134.125 50.9817 134.04 50.7339 134.215 50.4468C134.37 50.1916 134.571 50.1392 134.819 50.2895C134.858 50.3137 134.961 50.3872 135.127 50.5098C135.2 50.5871 135.277 50.65 135.356 50.6985C135.763 50.9458 136.148 50.7704 136.512 50.1723L139.429 45.3756Z" fill="black"/>
<path d="M156.029 56.1349C156.654 56.8034 156.948 57.5497 156.914 58.374L157.057 58.2402C157.323 57.9918 157.555 57.9733 157.752 58.1847C157.969 58.4166 157.93 58.6696 157.637 58.9435L157.576 59.0008C157.562 59.0136 157.45 59.0989 157.24 59.2568C157.03 59.4147 156.792 59.6179 156.526 59.8663C156.492 59.8982 156.389 60.0069 156.218 60.1926L155.837 60.6055C155.809 60.6442 155.765 60.6922 155.703 60.7495C155.376 61.0553 155.094 61.082 154.859 60.8296C154.61 60.5636 154.622 60.3032 154.895 60.0484C154.929 60.0165 154.946 60.0006 154.946 60.0006L155.242 59.763C155.344 59.6807 155.422 59.614 155.476 59.5631C155.886 59.1808 156.076 58.7416 156.046 58.2453C156.023 57.7559 155.786 57.269 155.334 56.7847C154.919 56.3413 154.479 56.0886 154.012 56.0264C153.552 55.971 153.138 56.1154 152.769 56.4594C152.34 56.8607 152.204 57.3513 152.362 57.9313C152.457 58.2515 152.715 58.7258 153.136 59.3543C153.764 60.2871 154.106 61.0086 154.161 61.519C154.248 62.2813 153.984 62.9492 153.37 63.5225C152.729 64.1214 151.99 64.3768 151.155 64.2888C150.325 64.2077 149.57 63.8021 148.888 63.0723C148.162 62.2947 147.806 61.4207 147.819 60.4505C147.792 60.476 147.764 60.508 147.736 60.5467C147.702 60.5786 147.682 60.5977 147.675 60.604C147.579 60.7196 147.513 60.7933 147.479 60.8252C147.227 61.0609 146.989 61.0594 146.766 60.8206C146.524 60.5614 146.546 60.298 146.833 60.0305C146.867 59.9986 146.897 59.9766 146.924 59.9643L147.495 59.5083C147.78 59.2803 147.96 59.1313 148.035 59.0612C148.171 58.9338 148.36 58.7256 148.601 58.4367C148.842 58.1478 149.031 57.9396 149.167 57.8122C149.474 57.5255 149.749 57.5118 149.991 57.771C150.239 58.037 150.21 58.3134 149.903 58.6L149.719 58.772C149.658 58.8162 149.576 58.886 149.474 58.9816C148.962 59.4594 148.709 60.0021 148.715 60.6099C148.721 61.2176 148.985 61.8011 149.507 62.3604C149.991 62.8788 150.499 63.1768 151.032 63.2545C151.564 63.3321 152.041 63.1734 152.464 62.7784C153.112 62.1732 153.126 61.3945 152.504 60.4422L152.062 59.7634C151.623 59.088 151.322 58.5264 151.159 58.0784C151.015 57.664 150.996 57.2407 151.103 56.8086C151.224 56.3769 151.458 55.9985 151.806 55.6737C152.406 55.113 153.097 54.8758 153.88 54.962C154.663 55.0482 155.38 55.4392 156.029 56.1349Z" fill="black"/>
<path d="M165.882 71.6059L160.666 78.5501L165.676 75.9545C166.322 75.6195 166.676 75.4307 166.738 75.3881C167.131 75.0902 167.239 74.7714 167.063 74.4317C167.028 74.3654 166.964 74.2724 166.871 74.1527C166.786 74.0286 166.726 73.9335 166.691 73.8672C166.636 73.7595 166.624 73.6449 166.655 73.5233C166.699 73.4058 166.775 73.3191 166.883 73.2633C167.181 73.1087 167.427 73.2179 167.62 73.5908C167.659 73.6654 167.683 73.7214 167.692 73.7589L167.907 74.3569C168.003 74.6227 168.106 74.8633 168.218 75.0787C168.33 75.2942 168.503 75.5672 168.737 75.8978C168.818 76.0135 168.914 76.1478 169.025 76.3006C169.033 76.3172 169.052 76.3441 169.082 76.3812C169.099 76.4144 169.114 76.4434 169.127 76.4682C169.312 76.8246 169.259 77.0779 168.969 77.2282C168.687 77.3742 168.461 77.2814 168.289 76.9499C168.259 76.8919 168.239 76.8442 168.23 76.8068L168.166 76.6825C168.037 76.4339 167.9 76.3002 167.753 76.2814C167.607 76.2626 167.347 76.3394 166.974 76.5118L166.252 76.8541L164.972 77.4862L161.653 79.2059C161.081 79.5022 160.645 79.6442 160.344 79.6318C160.047 79.6277 159.818 79.4682 159.654 79.1533C159.444 78.7473 159.556 78.2531 159.99 77.6707L165.077 70.9037L159.297 73.8987C158.675 74.2208 158.474 74.5931 158.693 75.0157C158.728 75.082 158.787 75.1772 158.873 75.3012C158.966 75.4209 159.03 75.5139 159.064 75.5802C159.202 75.8454 159.134 76.0488 158.86 76.1905C158.57 76.3408 158.329 76.2295 158.135 75.8566C158.127 75.84 158.114 75.8151 158.097 75.782C158.084 75.7363 158.073 75.7051 158.064 75.6885L157.875 75.1402C157.77 74.837 157.653 74.5611 157.525 74.3125C157.413 74.097 157.248 73.8302 157.031 73.5119L156.641 72.9414C156.632 72.9248 156.613 72.898 156.583 72.8608C156.562 72.8194 156.545 72.7863 156.532 72.7614C156.347 72.4051 156.4 72.1517 156.69 72.0015C156.947 71.8683 157.144 71.9344 157.281 72.1996C157.303 72.241 157.352 72.3572 157.43 72.5481C157.453 72.6521 157.485 72.7456 157.528 72.8284C157.747 73.2511 158.167 73.3014 158.789 72.9793L159.659 72.5284L160.759 71.9741L161.828 71.4202L163.786 70.3901C164.408 70.068 164.607 69.6915 164.383 69.2606C164.353 69.2026 164.302 69.124 164.23 69.0249C164.123 68.8803 164.051 68.7707 164.012 68.6962C163.875 68.431 163.943 68.2275 164.216 68.0858C164.506 67.9356 164.744 68.0386 164.928 68.3949C164.954 68.4446 164.984 68.5131 165.019 68.6002C165.192 69.0361 165.337 69.3658 165.453 69.5896C165.517 69.7139 165.626 69.8939 165.78 70.1296C165.933 70.3654 166.042 70.5454 166.107 70.6697C166.24 70.9266 166.241 71.1415 166.11 71.3146L165.882 71.6059Z" fill="black"/>
<path d="M170.541 88.4889L169.658 88.6438L168.536 88.8197L166.426 89.2584C165.786 89.3913 165.334 89.5567 165.07 89.7545C164.808 89.9615 164.636 90.2785 164.553 90.7056C164.473 91.1035 164.474 91.4943 164.553 91.8781C164.658 92.3807 164.843 92.7902 165.109 93.1067C165.375 93.4232 165.678 93.5985 166.019 93.6326C166.371 93.6739 166.799 93.6469 167.303 93.5516L170.832 92.8469C171.526 92.7026 171.917 92.6118 172.005 92.5746C172.454 92.3955 172.638 92.114 172.559 91.7302C172.545 91.6663 172.517 91.5768 172.474 91.4618C172.411 91.2939 172.372 91.1733 172.356 91.1002C172.332 90.9814 172.355 90.8669 172.428 90.7565C172.502 90.6552 172.599 90.5923 172.718 90.5676C173.046 90.4992 173.253 90.6661 173.336 91.0682C173.35 91.1321 173.358 91.1971 173.362 91.2629L173.421 92.0944C173.435 92.3012 173.469 92.5325 173.522 92.7883C173.573 93.0351 173.63 93.2378 173.691 93.3966L173.91 93.9661C173.971 94.1249 174.008 94.2317 174.019 94.2865C174.099 94.6703 173.984 94.8945 173.673 94.9591C173.362 95.0236 173.168 94.8686 173.09 94.4939L173.059 94.3431C173.062 94.3138 173.057 94.2672 173.044 94.2032C172.987 93.9291 172.815 93.7885 172.527 93.7815C172.24 93.7745 171.53 93.8887 170.397 94.1242L167.998 94.6227C167.404 94.7461 166.971 94.8171 166.698 94.8356C166.226 94.8574 165.796 94.7847 165.409 94.6174C164.5 94.2343 163.909 93.3894 163.638 92.0826C163.304 90.4743 163.614 89.3279 164.568 88.6435C164.857 88.4308 165.34 88.2542 166.016 88.1137C166.345 88.0454 166.832 87.9584 167.478 87.8529C168.132 87.7455 168.624 87.6576 168.953 87.5893L169.679 87.4383C170.346 87.2997 170.72 87.2172 170.8 87.191C171.29 87.0226 171.504 86.7922 171.443 86.4998C171.439 86.4815 171.433 86.4495 171.423 86.4038C171.405 86.36 171.387 86.3208 171.37 86.2862C171.363 86.2496 171.35 86.1902 171.333 86.108C171.253 85.7242 171.369 85.5 171.68 85.4354C171.99 85.3709 172.182 85.5122 172.254 85.8594C172.284 86.0057 172.303 86.1639 172.31 86.334C172.33 86.797 172.379 87.2204 172.459 87.6042C172.541 87.9971 172.676 88.4409 172.865 88.9356C172.906 89.0414 172.939 89.1583 172.966 89.2862C173.044 89.6609 172.927 89.8805 172.617 89.9451C172.306 90.0096 172.117 89.882 172.051 89.5622C172.036 89.4891 172.022 89.3775 172.01 89.2275C172.007 89.0756 171.998 88.9631 171.983 88.89C171.922 88.5976 171.726 88.4334 171.394 88.3974C171.248 88.3802 170.963 88.4107 170.541 88.4889Z" fill="black"/>
<path d="M169.518 123.867L163.554 122.966L169.93 126.762C170.488 127.089 170.682 127.49 170.513 127.965C170.335 128.466 169.965 128.672 169.403 128.581L161.877 127.392L166.953 130.459C167.311 130.675 167.592 130.82 167.794 130.891C168.155 131.02 168.401 130.899 168.532 130.53C168.56 130.45 168.596 130.335 168.641 130.182C168.685 130.029 168.721 129.913 168.749 129.834C168.884 129.456 169.101 129.32 169.4 129.426C169.69 129.53 169.769 129.766 169.638 130.135C169.588 130.276 169.528 130.418 169.457 130.561C169.113 131.251 168.9 131.71 168.819 131.939C168.756 132.115 168.69 132.384 168.621 132.745C168.549 133.116 168.482 133.389 168.419 133.565C168.303 133.89 168.092 133.998 167.784 133.889C167.502 133.789 167.418 133.581 167.531 133.264C167.549 133.211 167.582 133.134 167.628 133.031C167.683 132.932 167.72 132.856 167.739 132.803C167.805 132.619 167.783 132.457 167.673 132.319C167.561 132.19 167.278 131.981 166.826 131.692L161.059 127.978C160.616 127.692 160.471 127.333 160.624 126.902C160.787 126.445 161.187 126.265 161.826 126.363L169.278 127.511L162.635 123.501C162.195 123.236 162.046 122.901 162.19 122.496C162.337 122.083 162.673 121.905 163.197 121.962L170.324 122.727C170.687 122.767 170.947 122.746 171.105 122.663C171.269 122.592 171.396 122.43 171.487 122.175L171.519 122.082L171.596 121.783C171.696 121.501 171.891 121.412 172.182 121.515C172.489 121.625 172.589 121.833 172.479 122.141C172.435 122.264 172.372 122.4 172.29 122.549C172.042 122.996 171.838 123.444 171.679 123.892C171.604 124.103 171.476 124.602 171.295 125.39C171.265 125.528 171.229 125.659 171.185 125.782C171.073 126.099 170.871 126.205 170.581 126.102C170.264 125.99 170.175 125.74 170.312 125.353C170.341 125.274 170.393 125.154 170.47 124.993C170.544 124.841 170.595 124.725 170.623 124.646C170.732 124.338 170.642 124.133 170.352 124.03C170.246 123.992 170.118 123.962 169.968 123.938L169.518 123.867Z" fill="black"/>
<path d="M160.223 143.513C160.788 143.911 161.207 143.916 161.482 143.527C161.557 143.42 161.606 143.335 161.628 143.271C161.691 143.132 161.753 143.021 161.812 142.938C161.882 142.838 161.975 142.779 162.092 142.759C162.217 142.744 162.333 142.774 162.44 142.849C162.706 143.038 162.721 143.3 162.485 143.635C162.452 143.681 162.411 143.732 162.36 143.787L161.852 144.337C161.66 144.544 161.478 144.77 161.306 145.014C161.139 145.25 160.975 145.523 160.814 145.832L160.519 146.395C160.484 146.461 160.45 146.517 160.418 146.563C160.181 146.899 159.929 146.972 159.662 146.784C159.556 146.709 159.488 146.61 159.46 146.487C159.44 146.37 159.465 146.262 159.535 146.163C159.589 146.087 159.673 145.992 159.787 145.878C159.84 145.836 159.904 145.761 159.98 145.654C160.254 145.265 160.109 144.872 159.545 144.474L154.959 141.236C154.387 140.832 153.964 140.825 153.689 141.214C153.646 141.275 153.597 141.36 153.542 141.47C153.463 141.631 153.402 141.742 153.359 141.803C153.192 142.04 152.987 142.072 152.743 141.899C152.468 141.706 152.449 141.441 152.686 141.106C152.697 141.09 152.716 141.064 152.743 141.025C152.772 141 152.794 140.976 152.81 140.953L153.322 140.423C153.492 140.247 153.656 140.048 153.812 139.827C154.038 139.506 154.22 139.207 154.36 138.928L154.651 138.346C154.662 138.33 154.677 138.301 154.696 138.258C154.723 138.219 154.745 138.189 154.761 138.166C154.992 137.838 155.245 137.771 155.52 137.965C155.764 138.137 155.802 138.341 155.636 138.578C155.609 138.616 155.528 138.713 155.395 138.87C155.313 138.938 155.245 139.01 155.191 139.086C154.916 139.475 155.065 139.872 155.637 140.275L160.223 143.513Z" fill="black"/>
<path d="M148.357 159.339C147.648 159.916 146.883 160.159 146.063 160.069L146.187 160.221C146.416 160.503 146.419 160.735 146.194 160.918C145.948 161.118 145.699 161.063 145.445 160.751L145.392 160.686C145.381 160.672 145.303 160.554 145.16 160.334C145.017 160.114 144.83 159.862 144.6 159.58C144.571 159.544 144.47 159.434 144.296 159.25L143.91 158.842C143.873 158.812 143.828 158.764 143.775 158.699C143.493 158.351 143.485 158.069 143.753 157.851C144.036 157.621 144.295 157.651 144.53 157.941C144.56 157.977 144.574 157.995 144.574 157.995L144.791 158.306C144.866 158.413 144.928 158.496 144.975 158.553C145.328 158.988 145.753 159.207 146.25 159.212C146.74 159.223 147.242 159.019 147.756 158.601C148.227 158.218 148.509 157.796 148.603 157.334C148.69 156.879 148.574 156.455 148.256 156.064C147.885 155.608 147.405 155.44 146.815 155.558C146.489 155.631 145.998 155.856 145.343 156.233C144.369 156.796 143.626 157.088 143.113 157.108C142.347 157.142 141.698 156.833 141.168 156.182C140.614 155.501 140.41 154.747 140.555 153.919C140.692 153.098 141.149 152.372 141.923 151.741C142.749 151.07 143.645 150.774 144.612 150.853C144.588 150.824 144.558 150.795 144.521 150.764C144.492 150.728 144.474 150.707 144.468 150.699C144.36 150.595 144.291 150.525 144.261 150.489C144.043 150.221 144.061 149.984 144.314 149.778C144.59 149.554 144.851 149.594 145.098 149.898C145.128 149.934 145.148 149.966 145.158 149.994L145.574 150.594C145.782 150.894 145.918 151.084 145.983 151.164C146.101 151.308 146.296 151.511 146.568 151.771C146.839 152.031 147.034 152.234 147.152 152.378C147.417 152.704 147.412 152.979 147.137 153.203C146.855 153.433 146.581 153.384 146.316 153.059L146.157 152.863C146.117 152.799 146.053 152.713 145.964 152.605C145.523 152.062 144.998 151.772 144.392 151.736C143.785 151.701 143.185 151.924 142.591 152.407C142.041 152.855 141.709 153.341 141.595 153.867C141.481 154.393 141.607 154.88 141.972 155.329C142.532 156.017 143.308 156.083 144.3 155.528L145.008 155.133C145.712 154.741 146.292 154.479 146.751 154.347C147.174 154.232 147.597 154.242 148.021 154.378C148.444 154.528 148.805 154.787 149.105 155.157C149.624 155.794 149.813 156.5 149.674 157.275C149.534 158.05 149.096 158.738 148.357 159.339Z" fill="black"/>
<path d="M132.25 168.113L125.678 162.436L127.925 167.611C128.216 168.278 128.38 168.645 128.418 168.709C128.688 169.121 128.999 169.251 129.35 169.098C129.419 169.068 129.516 169.011 129.642 168.926C129.771 168.849 129.87 168.796 129.939 168.766C130.05 168.718 130.165 168.714 130.284 168.754C130.398 168.806 130.48 168.887 130.528 168.999C130.662 169.307 130.536 169.545 130.151 169.712C130.074 169.745 130.016 169.765 129.978 169.772L129.367 169.946C129.095 170.023 128.848 170.11 128.626 170.207C128.403 170.303 128.119 170.457 127.773 170.668C127.652 170.741 127.512 170.828 127.352 170.928C127.334 170.935 127.306 170.953 127.267 170.98C127.233 170.995 127.203 171.008 127.177 171.019C126.809 171.179 126.56 171.109 126.43 170.809C126.304 170.518 126.412 170.298 126.754 170.149C126.814 170.123 126.863 170.107 126.901 170.101L127.029 170.045C127.286 169.934 127.429 169.806 127.458 169.661C127.486 169.516 127.427 169.252 127.281 168.867L126.989 168.124L126.445 166.803L124.956 163.375C124.7 162.784 124.588 162.339 124.621 162.04C124.645 161.745 124.82 161.526 125.145 161.385C125.564 161.203 126.05 161.348 126.601 161.821L133.005 167.358L130.412 161.387C130.133 160.745 129.775 160.519 129.339 160.708C129.27 160.738 129.171 160.791 129.042 160.868C128.916 160.953 128.819 161.01 128.75 161.04C128.476 161.159 128.278 161.077 128.155 160.795C128.025 160.495 128.152 160.262 128.538 160.094C128.555 160.087 128.581 160.076 128.615 160.061C128.661 160.051 128.693 160.042 128.71 160.035L129.27 159.883C129.58 159.799 129.863 159.702 130.12 159.59C130.342 159.494 130.62 159.348 130.952 159.152L131.548 158.802C131.565 158.795 131.593 158.777 131.632 158.75C131.675 158.732 131.709 158.717 131.735 158.706C132.103 158.546 132.352 158.616 132.482 158.915C132.598 159.181 132.518 159.373 132.244 159.492C132.202 159.51 132.082 159.552 131.887 159.617C131.781 159.632 131.686 159.658 131.6 159.695C131.164 159.885 131.085 160.301 131.364 160.943L131.754 161.842L132.232 162.977L132.712 164.082L133.606 166.105C133.885 166.747 134.247 166.971 134.692 166.778C134.752 166.752 134.834 166.706 134.938 166.641C135.089 166.544 135.203 166.479 135.28 166.446C135.554 166.327 135.753 166.409 135.875 166.691C136.006 166.991 135.887 167.221 135.518 167.38C135.467 167.403 135.397 167.428 135.307 167.457C134.861 167.6 134.522 167.722 134.291 167.822C134.162 167.878 133.975 167.974 133.73 168.112C133.484 168.249 133.297 168.345 133.169 168.401C132.903 168.516 132.689 168.503 132.525 168.36L132.25 168.113Z" fill="black"/>
<path d="M115.088 171.609L114.994 170.718L114.895 169.587L114.601 167.451C114.512 166.804 114.378 166.342 114.199 166.065C114.01 165.789 113.706 165.596 113.285 165.484C112.894 165.378 112.504 165.351 112.115 165.404C111.607 165.474 111.186 165.631 110.852 165.875C110.518 166.119 110.322 166.409 110.265 166.747C110.2 167.095 110.198 167.524 110.258 168.034L110.72 171.602C110.817 172.305 110.881 172.701 110.912 172.791C111.06 173.251 111.328 173.455 111.717 173.401C111.781 173.392 111.873 173.37 111.99 173.335C112.162 173.283 112.285 173.252 112.359 173.242C112.479 173.226 112.592 173.257 112.697 173.337C112.793 173.418 112.849 173.519 112.866 173.639C112.911 173.972 112.731 174.166 112.324 174.222C112.259 174.231 112.194 174.235 112.128 174.235L111.294 174.237C111.087 174.237 110.854 174.255 110.595 174.29C110.346 174.325 110.139 174.367 109.977 174.418L109.394 174.597C109.231 174.647 109.122 174.676 109.067 174.684C108.678 174.737 108.462 174.607 108.419 174.293C108.376 173.978 108.544 173.795 108.923 173.743L109.076 173.722C109.105 173.727 109.152 173.726 109.216 173.717C109.494 173.679 109.646 173.516 109.672 173.23C109.699 172.944 109.633 172.227 109.476 171.081L109.142 168.654C109.06 168.053 109.018 167.615 109.018 167.342C109.029 166.87 109.131 166.446 109.324 166.071C109.768 165.19 110.652 164.659 111.974 164.477C113.601 164.253 114.724 164.641 115.341 165.639C115.534 165.943 115.677 166.436 115.771 167.121C115.817 167.454 115.87 167.945 115.932 168.597C115.994 169.257 116.048 169.753 116.094 170.086L116.195 170.821C116.288 171.496 116.345 171.875 116.365 171.957C116.5 172.456 116.715 172.686 117.011 172.645C117.029 172.643 117.062 172.638 117.108 172.632C117.153 172.616 117.193 172.601 117.229 172.587C117.266 172.582 117.326 172.574 117.409 172.562C117.798 172.509 118.014 172.639 118.057 172.954C118.1 173.268 117.946 173.449 117.595 173.498C117.447 173.518 117.287 173.526 117.117 173.521C116.654 173.509 116.228 173.53 115.84 173.583C115.442 173.638 114.99 173.743 114.484 173.897C114.375 173.931 114.257 173.957 114.127 173.974C113.748 174.026 113.537 173.895 113.494 173.581C113.45 173.267 113.591 173.087 113.914 173.043C113.988 173.032 114.1 173.026 114.251 173.025C114.403 173.032 114.516 173.031 114.59 173.02C114.885 172.98 115.063 172.795 115.121 172.467C115.148 172.322 115.137 172.036 115.088 171.609Z" fill="black"/>
</svg>
