<svg width="60" height="52" viewBox="0 0 60 52" fill="none" xmlns="http://www.w3.org/2000/svg">
<rect x="6.36133" y="3.67639" width="46.3023" height="46.3023" rx="8.81949" fill="black"/>
<path fill-rule="evenodd" clip-rule="evenodd" d="M29.8644 8.15747C19.7855 8.15747 11.6377 16.3654 11.6377 26.5197C11.6377 34.6365 16.8583 41.5073 24.1006 43.939C25.0061 44.1219 25.3378 43.5439 25.3378 43.0578C25.3378 42.6321 25.3079 41.173 25.3079 39.6527C20.2377 40.7473 19.1819 37.4638 19.1819 37.4638C18.3671 35.3357 17.1597 34.7887 17.1597 34.7887C15.5003 33.6639 17.2806 33.6639 17.2806 33.6639C19.1214 33.7855 20.0874 35.5487 20.0874 35.5487C21.7166 38.3454 24.342 37.5552 25.3982 37.0687C25.549 35.883 26.0321 35.0622 26.5451 34.6063C22.5012 34.1806 18.2465 32.5998 18.2465 25.5466C18.2465 23.5402 18.9703 21.8986 20.1172 20.6219C19.9363 20.166 19.3024 18.2808 20.2985 15.7576C20.2985 15.7576 21.8375 15.2711 25.3076 17.6424C26.7932 17.2405 28.3254 17.036 29.8644 17.0343C31.4034 17.0343 32.9723 17.2473 34.4209 17.6424C37.8914 15.2711 39.4304 15.7576 39.4304 15.7576C40.4265 18.2808 39.7923 20.166 39.6113 20.6219C40.7884 21.8986 41.4824 23.5402 41.4824 25.5466C41.4824 32.5998 37.2277 34.15 33.1536 34.6063C33.8177 35.1838 34.3907 36.2781 34.3907 38.0111C34.3907 40.4734 34.3609 42.4497 34.3609 43.0574C34.3609 43.5439 34.6929 44.1219 35.598 43.9394C42.8404 41.5069 48.061 34.6365 48.061 26.5197C48.0908 16.3654 39.9131 8.15747 29.8644 8.15747Z" fill="white"/>
</svg>
