<svg width="48" height="47" viewBox="0 0 48 47" fill="none" xmlns="http://www.w3.org/2000/svg">
<rect x="0.829102" y="0.676392" width="46.3023" height="46.3023" rx="8.81949" fill="black"/>
<g clip-path="url(#clip0_522_228)">
<path d="M24.3365 10.1662C28.9044 10.1662 29.4453 10.1862 31.2418 10.2664C32.9113 10.3398 33.8129 10.6203 34.4139 10.854C35.2086 11.1612 35.783 11.5352 36.3773 12.1296C36.9784 12.7306 37.3457 13.2983 37.6529 14.093C37.8866 14.694 38.1671 15.6023 38.2405 17.2651C38.3207 19.0683 38.3407 19.6092 38.3407 24.1704C38.3407 28.7383 38.3207 29.2793 38.2405 31.0757C38.1671 32.7453 37.8866 33.6468 37.6529 34.2479C37.3457 35.0426 36.9717 35.6169 36.3773 36.2113C35.7763 36.8123 35.2086 37.1796 34.4139 37.4868C33.8129 37.7205 32.9046 38.001 31.2418 38.0745C29.4386 38.1546 28.8977 38.1747 24.3365 38.1747C19.7686 38.1747 19.2276 38.1546 17.4312 38.0745C15.7616 38.001 14.8601 37.7205 14.259 37.4868C13.4643 37.1796 12.89 36.8056 12.2956 36.2113C11.6946 35.6102 11.3273 35.0426 11.0201 34.2479C10.7864 33.6468 10.5059 32.7386 10.4324 31.0757C10.3523 29.2726 10.3323 28.7316 10.3323 24.1704C10.3323 19.6025 10.3523 19.0616 10.4324 17.2651C10.5059 15.5956 10.7864 14.694 11.0201 14.093C11.3273 13.2983 11.7013 12.7239 12.2956 12.1296C12.8967 11.5285 13.4643 11.1612 14.259 10.854C14.8601 10.6203 15.7683 10.3398 17.4312 10.2664C19.2276 10.1862 19.7686 10.1662 24.3365 10.1662ZM24.3365 7.08752C19.6951 7.08752 19.1141 7.10756 17.291 7.1877C15.4745 7.26784 14.2257 7.56168 13.1438 7.98241C12.0152 8.42317 11.0602 9.00417 10.1119 9.95916C9.15688 10.9075 8.57588 11.8625 8.13512 12.9844C7.71439 14.0729 7.42055 15.3151 7.34041 17.1316C7.26027 18.9614 7.24023 19.5424 7.24023 24.1838C7.24023 28.8251 7.26027 29.4061 7.34041 31.2293C7.42055 33.0458 7.71439 34.2946 8.13512 35.3765C8.57588 36.5051 9.15688 37.4601 10.1119 38.4084C11.0602 39.3567 12.0152 39.9444 13.1371 40.3785C14.2257 40.7992 15.4678 41.093 17.2843 41.1732C19.1074 41.2533 19.6884 41.2733 24.3298 41.2733C28.9712 41.2733 29.5522 41.2533 31.3753 41.1732C33.1918 41.093 34.4406 40.7992 35.5225 40.3785C36.6445 39.9444 37.5994 39.3567 38.5477 38.4084C39.4961 37.4601 40.0837 36.5051 40.5178 35.3832C40.9385 34.2946 41.2324 33.0525 41.3125 31.236C41.3927 29.4128 41.4127 28.8318 41.4127 24.1905C41.4127 19.5491 41.3927 18.9681 41.3125 17.1449C41.2324 15.3285 40.9385 14.0796 40.5178 12.9978C40.0971 11.8625 39.5161 10.9075 38.5611 9.95916C37.6128 9.01085 36.6578 8.42317 35.5359 7.98908C34.4473 7.56836 33.2052 7.27451 31.3887 7.19438C29.5589 7.10756 28.9779 7.08752 24.3365 7.08752Z" fill="white"/>
<path d="M24.3365 15.402C19.4882 15.402 15.5547 19.3355 15.5547 24.1838C15.5547 29.0322 19.4882 32.9657 24.3365 32.9657C29.1849 32.9657 33.1184 29.0322 33.1184 24.1838C33.1184 19.3355 29.1849 15.402 24.3365 15.402ZM24.3365 29.8804C21.1911 29.8804 18.64 27.3293 18.64 24.1838C18.64 21.0384 21.1911 18.4873 24.3365 18.4873C27.482 18.4873 30.0331 21.0384 30.0331 24.1838C30.0331 27.3293 27.482 29.8804 24.3365 29.8804Z" fill="white"/>
<path d="M35.5155 15.0546C35.5155 16.1899 34.5939 17.1048 33.4653 17.1048C32.33 17.1048 31.415 16.1832 31.415 15.0546C31.415 13.9193 32.3366 13.0044 33.4653 13.0044C34.5939 13.0044 35.5155 13.926 35.5155 15.0546Z" fill="white"/>
</g>
<defs>
<clipPath id="clip0_522_228">
<rect width="34.1925" height="34.1925" fill="white" transform="translate(7.24023 7.08752)"/>
</clipPath>
</defs>
</svg>
