<svg width="1559" height="884" viewBox="0 0 1559 884" fill="none" xmlns="http://www.w3.org/2000/svg">
<rect x="2.75609" y="344.756" width="1553.49" height="536.488" rx="24.8048" stroke="black" stroke-width="5.51218"/>
<rect x="2.75609" y="2.75609" width="1553.49" height="319.488" rx="24.8048" stroke="black" stroke-width="5.51218"/>
<path d="M7.16699 140.561H1555.54" stroke="black" stroke-width="5.51218"/>
<path d="M1385.95 4.40979V143" stroke="black" stroke-width="5.51218"/>
<path d="M18.7422 140.561L4.68612 150.585L4.68612 130.536L18.7422 140.561Z" fill="black"/>
<path d="M1386.5 18.7415L1376.47 4.68539L1396.52 4.68539L1386.5 18.7415Z" fill="black"/>
<path d="M1385.58 124L1375.55 138.056H1395.6L1385.58 124Z" fill="black"/>
<path d="M1540.1 140.561L1554.16 150.585V130.536L1540.1 140.561Z" fill="black"/>
<circle cx="1470.1" cy="67.7998" r="44.6487" fill="black"/>
<path d="M1473.72 59.4948L1475.93 73.7162L1478.02 62.8021C1478.08 62.5596 1478.12 62.3501 1478.12 62.1737C1478.12 61.7768 1477.93 61.5784 1477.55 61.5784C1477.49 61.5784 1477.34 61.6004 1477.12 61.6445C1477.08 61.6445 1477.01 61.6445 1476.92 61.6445C1476.84 61.6666 1476.77 61.6776 1476.73 61.6776C1475.89 61.6776 1475.47 61.0161 1475.47 59.6932C1475.47 58.0396 1476.21 57.2127 1477.69 57.2127C1478.06 57.2127 1478.59 57.2568 1479.27 57.345C1480.31 57.4773 1481 57.5435 1481.36 57.5435C1481.4 57.5435 1482.28 57.4442 1484 57.2458C1484.29 57.2238 1484.53 57.2127 1484.73 57.2127C1485.39 57.2127 1485.93 57.4442 1486.35 57.9073C1486.79 58.3482 1487.01 58.9105 1487.01 59.594C1487.01 60.1893 1486.85 60.7075 1486.52 61.1484C1486.21 61.5894 1485.83 61.8099 1485.39 61.8099C1485.15 61.8099 1484.92 61.7768 1484.7 61.7107C1484.5 61.6225 1484.32 61.5784 1484.17 61.5784C1483.79 61.5784 1483.52 61.854 1483.34 62.4052C1483.34 62.4273 1483.24 62.8572 1483.04 63.6951L1480.03 77.0566C1479.81 77.9606 1479.65 78.5118 1479.54 78.7102C1479.29 79.1733 1478.84 79.4048 1478.18 79.4048C1477.94 79.4048 1477.59 79.3827 1477.12 79.3386C1476.9 79.3166 1476.52 79.3056 1475.97 79.3056C1475.5 79.3056 1475.09 79.3166 1474.74 79.3386L1473.68 79.4048C1473.68 79.4048 1473.63 79.4048 1473.52 79.4048C1472.94 79.4048 1472.55 79.2063 1472.33 78.8095C1472.11 78.4126 1471.89 77.5086 1471.67 76.0975L1469.88 64.555L1468.06 76.0975C1467.84 77.5086 1467.62 78.4126 1467.4 78.8095C1467.18 79.2063 1466.78 79.4048 1466.21 79.4048C1466.01 79.4048 1465.6 79.3827 1464.99 79.3386C1464.68 79.3166 1464.28 79.3056 1463.79 79.3056C1463.55 79.3056 1463.18 79.3276 1462.67 79.3717C1462.18 79.3938 1461.82 79.4048 1461.58 79.4048C1460.92 79.4048 1460.47 79.1733 1460.22 78.7102C1460.11 78.5339 1459.95 77.9826 1459.73 77.0566L1459.33 75.3699L1456.68 63.6951C1456.6 63.2761 1456.51 62.8462 1456.42 62.4052C1456.22 61.854 1455.95 61.5784 1455.59 61.5784C1455.42 61.5784 1455.23 61.6115 1455.03 61.6776C1454.77 61.7658 1454.55 61.8099 1454.37 61.8099C1453.93 61.8099 1453.54 61.5894 1453.21 61.1484C1452.88 60.7075 1452.72 60.1783 1452.72 59.5609C1452.72 58.8774 1452.94 58.3152 1453.38 57.8742C1453.82 57.4332 1454.37 57.2127 1455.03 57.2127C1455.4 57.2127 1455.96 57.2679 1456.68 57.3781C1457.43 57.4883 1458.01 57.5435 1458.4 57.5435C1458.76 57.5435 1459.45 57.4773 1460.49 57.345C1461.17 57.2568 1461.7 57.2127 1462.07 57.2127C1463.55 57.2127 1464.29 57.9955 1464.29 59.5609C1464.29 60.972 1463.87 61.6776 1463.03 61.6776C1462.99 61.6776 1462.92 61.6666 1462.84 61.6445C1462.75 61.6445 1462.67 61.6445 1462.6 61.6445C1462.38 61.6004 1462.25 61.5784 1462.21 61.5784C1461.83 61.5784 1461.64 61.7878 1461.64 62.2068C1461.64 62.3832 1461.67 62.5816 1461.71 62.8021L1463.83 73.7162L1466.01 59.4948C1466.16 58.5467 1466.33 57.9293 1466.51 57.6427C1466.68 57.3561 1466.99 57.2127 1467.43 57.2127C1467.7 57.2127 1468.11 57.2458 1468.66 57.312C1469.21 57.3561 1469.62 57.3781 1469.88 57.3781C1470.14 57.3781 1470.54 57.3561 1471.07 57.312C1471.62 57.2458 1472.03 57.2127 1472.29 57.2127C1472.85 57.2127 1473.22 57.4663 1473.42 57.9734C1473.48 58.1498 1473.58 58.6569 1473.72 59.4948Z" fill="white"/>
<circle cx="36.9321" cy="72.2096" r="10.4732" fill="black"/>
<circle cx="66.6978" cy="72.2096" r="10.4732" fill="black"/>
<path d="M96.4648 71.6584H276.713" stroke="black" stroke-width="5.51218"/>
</svg>
