<svg width="48" height="47" viewBox="0 0 48 47" fill="none" xmlns="http://www.w3.org/2000/svg">
<rect x="0.995117" y="0.676392" width="46.3023" height="46.3023" rx="8.81949" fill="black"/>
<path d="M6.50684 41.4667L8.98658 32.4076C7.4564 29.7559 6.65236 26.7499 6.65383 23.6675C6.65824 14.0307 14.5002 6.18872 24.1355 6.18872C28.8113 6.19019 33.2005 8.01142 36.5019 11.3158C39.8019 14.6202 41.6187 19.0123 41.6172 23.6837C41.6128 33.3219 33.7708 41.1639 24.1355 41.1639C21.2104 41.1624 18.3279 40.4289 15.7747 39.0355L6.50684 41.4667ZM16.2039 35.8707C18.6674 37.3333 21.0193 38.2094 24.1297 38.2108C32.1378 38.2108 38.6612 31.6932 38.6657 23.6807C38.6686 15.652 32.176 9.14325 24.1414 9.14031C16.1274 9.14031 9.60836 15.6579 9.60542 23.669C9.60395 26.9395 10.5623 29.3884 12.1719 31.9505L10.7034 37.3127L16.2039 35.8707ZM32.9418 27.8391C32.833 27.6568 32.542 27.5481 32.104 27.329C31.6674 27.11 29.5198 26.0532 29.1185 25.9076C28.7187 25.7621 28.4277 25.6886 28.1352 26.1267C27.8441 26.5632 27.0063 27.5481 26.752 27.8391C26.4977 28.1302 26.2419 28.1669 25.8054 27.9479C25.3688 27.7289 23.9606 27.2688 22.2923 25.7798C20.9943 24.6215 20.1168 23.1912 19.8625 22.7532C19.6082 22.3166 19.836 22.08 20.0536 21.8624C20.2505 21.6669 20.4901 21.3524 20.7092 21.0966C20.9311 20.8438 21.0031 20.6615 21.1501 20.369C21.2957 20.078 21.2236 19.8222 21.1134 19.6032C21.0031 19.3856 20.13 17.2351 19.7669 16.3605C19.4112 15.5095 19.0511 15.6241 18.7836 15.6109L17.9457 15.5962C17.6547 15.5962 17.1814 15.705 16.7815 16.143C16.3817 16.581 15.2528 17.6364 15.2528 19.7869C15.2528 21.9374 16.8183 24.0144 17.0358 24.3054C17.2549 24.5965 20.1153 29.0092 24.4971 30.9009C25.5393 31.3507 26.3536 31.6197 26.9872 31.8211C28.0338 32.1533 28.9863 32.1063 29.7389 31.9946C30.5782 31.8696 32.323 30.9377 32.6875 29.9176C33.052 28.896 33.052 28.0214 32.9418 27.8391Z" fill="white"/>
</svg>
